<svg viewBox="0 0 32 32" xmlns="http://www.w3.org/2000/svg" fill="#FFFFFF">
    <path d="M16 0c8.837 0 16 7.163 16 16 0 8.837-7.163 16-16 16a15.878 15.878 0 0 1-7.32-1.765L0 32l2.8-8.48A15.88 15.88 0 0 1 0 16C0 7.163 7.163 0 16 0zm7.48 8.48c-.92-.92-2.132-1.42-3.448-1.42a4.812 4.812 0 0 0-4.815 4.816c0 .69.135 1.356.4 1.98l.11.276-1.444 3.38-.34.78.795-.34 3.38-1.444.276.11a4.765 4.765 0 0 0 1.98.4 4.812 4.812 0 0 0 4.816-4.815c0-1.316-.5-2.528-1.42-3.448zm-1.16 5.736c-.38.38-.88.572-1.416.572-.444 0-.884-.14-1.276-.416-.156-.104-.348-.216-.548-.336-.624-.372-1.108-.664-1.812-.416-.348.12-.62.316-.936.592-.172.14-.384.24-.632.14-.336-.14-.796-.348-1.172-.568-.696-.408-1.216-.908-1.796-1.58-.456-.524-.8-1.18-1.016-1.58-.276-.536.008-.76.248-.984.188-.192.38-.396.52-.588.172-.228.34-.46.5-.7.08-.14.14-.3.224-.456a.68.68 0 0 0-.144-.744c-.132-.132-.264-.264-.4-.4-.076-.076-.152-.152-.228-.22-.22-.22-.464-.296-.74-.276a1.37 1.37 0 0 0-.5.14c-.168.088-.336.192-.496.308-.548.416-.976.992-1.22 1.608-.288.72-.364 1.528-.22 2.32.156.788.58 1.464 1.044 2.12.804 1.12 1.808 2.12 2.972 2.872.652.416 1.384.76 2.172.948.448.112.904.172 1.36.172.632 0 1.236-.08 1.82-.24.776-.196 1.484-.664 1.936-1.292.2-.288.36-.608.46-.94.16-.444.24-.916.24-1.388 0-.52-.2-.932-.568-1.3z" />
  </svg>
  